M48
; DRILL file {KiCad 7.0.7} date Mon Sep 25 12:36:24 2023
; FORMAT={-:-/ absolute / inch / decimal}
; #@! TF.CreationDate,2023-09-25T12:36:24+01:00
; #@! TF.GenerationSoftware,Kicad,Pcbnew,7.0.7
; #@! TF.FileFunction,Plated,1,2,PTH
FMAT,2
INCH
; #@! TA.AperFunction,Plated,PTH,ViaDrill
T1C0.0315
; #@! TA.AperFunction,Plated,PTH,ComponentDrill
T2C0.0315
; #@! TA.AperFunction,Plated,PTH,ComponentDrill
T3C0.0394
; #@! TA.AperFunction,Plated,PTH,ComponentDrill
T4C0.0472
; #@! TA.AperFunction,Plated,PTH,ComponentDrill
T5C0.0512
; #@! TA.AperFunction,Plated,PTH,ComponentDrill
T6C0.0551
; #@! TA.AperFunction,Plated,PTH,ComponentDrill
T7C0.0591
; #@! TA.AperFunction,Plated,PTH,ComponentDrill
T8C0.0787
; #@! TA.AperFunction,Plated,PTH,ComponentDrill
T9C0.1575
%
G90
G05
T1
X4.0618Y-8.5256
X4.1118Y-9.2547
X4.1122Y-9.3531
X4.1354Y-8.2957
X4.2047Y-9.4551
X4.2571Y-10.1244
X4.3843Y-10.1071
X4.637Y-10.1941
X4.815Y-7.6697
X4.9134Y-7.3185
X5.2657Y-7.8161
X5.3126Y-10.2606
X5.315Y-8.972
X5.3681Y-8.8689
X5.5394Y-7.6677
X5.5409Y-10.0539
X5.5819Y-4.1886
X5.6169Y-8.0417
X5.6382Y-10.1106
X5.6717Y-6.189
X5.6992Y-4.1866
X5.7122Y-8.9701
X5.7398Y-10.2606
X5.8193Y-8.965
X5.8933Y-10.1496
X5.915Y-6.0839
X5.9157Y-6.6189
X5.9472Y-5.7862
X6.0898Y-8.9713
X6.1925Y-10.1469
X6.2579Y-5.5339
X6.2618Y-5.7362
X6.2634Y-7.4346
X6.2661Y-9.6016
X6.3472Y-7.7602
X6.4146Y-10.2819
X6.4429Y-8.8661
X6.4433Y-7.8118
X6.5425Y-10.3075
X6.6343Y-5.9815
X6.6374Y-10.3465
X6.7425Y-10.4437
X6.7441Y-7.8886
X6.7445Y-8.9713
X6.8461Y-10.4114
X6.8902Y-8.1949
X6.9165Y-5.7827
X6.9709Y-8.0413
X6.987Y-6.6382
X6.9972Y-7.6689
X7.0413Y-8.9189
X7.1925Y-8.9677
X7.1969Y-10.3437
X7.2465Y-6.6661
X7.3016Y-8.974
X7.5205Y-5.887
X7.5669Y-7.3854
X7.5705Y-6.5146
X7.598Y-9.0469
X7.5988Y-7.7142
X7.6232Y-7.2449
X8.048Y-7.8449
X8.1642Y-6.2567
X8.224Y-9.0181
X8.2469Y-7.8665
X8.2732Y-6.1618
X8.3Y-10.3831
X8.322Y-7.7929
X8.3846Y-4.9657
X8.4449Y-7.8941
X8.5476Y-10.339
X8.5996Y-8.9197
X8.7961Y-10.2988
X8.8709Y-9.0024
X8.9169Y-5.7295
X8.948Y-10.2705
X9.0449Y-7.839
X9.0728Y-8.9173
X9.1925Y-7.8398
X9.1988Y-7.6445
X9.3437Y-8.9728
X9.3453Y-8.7969
X9.4724Y-6.2169
X9.4984Y-6.6437
X9.5197Y-6.8394
X9.5213Y-9.0665
X9.5681Y-6.5102
X9.6232Y-8.972
X9.6295Y-8.8654
X9.6976Y-6.6665
X9.698Y-7.865
X9.7201Y-6.5071
X9.7272Y-8.8441
X9.8024Y-6.6429
X9.8488Y-8.9413
X9.9Y-10.2268
X9.9268Y-7.6449
X9.9744Y-7.837
X9.978Y-7.7398
X10.0953Y-5.4831
X10.0972Y-7.8654
X10.0988Y-10.2067
X10.1516Y-7.2839
X10.1697Y-6.85
X10.176Y-9.7961
X10.1799Y-7.7433
X10.2437Y-5.628
X10.2559Y-8.9441
X10.2665Y-7.7961
X10.3496Y-6.6339
X10.4043Y-8.8681
X10.4516Y-6.5882
X10.4787Y-7.9413
X10.5197Y-7.6039
X10.5976Y-8.8945
X10.5996Y-6.5858
X10.6961Y-8.9449
X10.772Y-6.5157
X10.7744Y-7.9894
X10.8028Y-8.9437
X10.8173Y-5.9295
X10.8803Y-8.3165
X10.9228Y-7.2106
X10.924Y-8.8669
X10.9437Y-7.3591
X10.9547Y-7.4677
X11.0496Y-6.8689
X11.05Y-7.9898
X11.0744Y-8.6362
X11.1457Y-10.1724
X11.1496Y-7.0976
X11.152Y-8.4685
X11.1539Y-6.8654
X11.2055Y-10.3575
X11.3244Y-6.9083
X11.4264Y-8.6354
X11.4303Y-6.7626
X11.452Y-10.3709
X11.4764Y-6.6091
X11.5811Y-8.5394
X11.6791Y-6.8402
X11.7047Y-10.3803
X11.7276Y-8.6413
X11.7547Y-8.5421
X11.7587Y-7.015
X11.8024Y-10.3709
X11.9504Y-5.5142
X11.9524Y-8.235
X12.028Y-8.3673
X12.0547Y-7.0425
X12.0551Y-10.2744
X12.0964Y-7.6205
X12.1047Y-8.6476
X12.1189Y-5.7024
X12.1465Y-9.8465
X12.1587Y-7.5496
X12.1827Y-5.9319
X12.2004Y-8.9827
X12.2024Y-8.4917
X12.2024Y-9.3449
X12.2051Y-7.6949
X12.2272Y-10.1528
X12.2539Y-8.9004
X12.2591Y-7.0429
X12.3295Y-8.7583
X12.3512Y-8.9748
X12.3512Y-10.1228
X12.3528Y-7.0346
X12.3551Y-6.8402
X12.3748Y-10.3205
X12.4252Y-8.6197
X12.4539Y-7.0449
X12.5268Y-8.615
X12.5516Y-7.0433
X12.5543Y-6.6165
X12.6012Y-10.2268
X12.6539Y-6.8728
X12.6705Y-8.6232
X12.6799Y-8.9157
X12.7106Y-8.4469
X12.8343Y-9.1673
X12.8787Y-10.2752
X12.8799Y-8.6161
X12.9075Y-7.0394
X13.0016Y-7.5858
X13.0059Y-8.8504
X13.1043Y-10.2197
X13.1287Y-8.1646
X13.1327Y-8.0689
X13.1559Y-7.2843
X13.2291Y-8.9169
X13.2323Y-8.0114
X13.2323Y-8.2217
X13.3453Y-5.2772
X13.3508Y-5.3772
X13.4094Y-8.8449
X13.4244Y-5.887
X13.4276Y-7.135
X13.4488Y-6.5067
X13.452Y-5.3878
X13.4791Y-8.0102
X13.5335Y-7.7457
X13.6768Y-10.0252
X13.7756Y-8.9272
X13.7772Y-10.0764
X13.8516Y-10.2339
X13.8606Y-6.6165
X13.8827Y-7.7047
X13.902Y-8.7913
X14.0063Y-10.2374
X14.0102Y-8.2441
X14.0106Y-7.2937
X14.0236Y-7.6331
X14.0701Y-4.935
X14.0823Y-7.0417
X14.0831Y-6.9402
X14.1008Y-5.8787
X14.1028Y-7.4346
X14.1976Y-10.0768
X14.2063Y-8.7461
X14.2071Y-7.7689
X14.4035Y-10.3059
X14.4087Y-8.9697
X14.4299Y-8.8189
X14.4543Y-9.2476
X14.4579Y-6.6339
X14.5299Y-7.7843
X14.5559Y-8.8193
X14.5563Y-10.0748
X14.6024Y-6.6166
X14.6563Y-7.4339
X14.7102Y-9.0217
X14.7252Y-9.1728
X14.728Y-8.339
X14.7528Y-7.7614
X14.7579Y-8.0709
X14.7909Y-10.0291
X14.8052Y-5.3961
X14.8984Y-10.1
X14.9079Y-8.7472
X14.9925Y-10.0035
X15.0134Y-8.7677
X15.0421Y-9.565
X15.0602Y-6.5764
X15.1067Y-10.2236
X15.1173Y-7.5709
X15.1531Y-8.9449
X15.1862Y-5.4299
X15.2846Y-5.1039
X15.3028Y-10.1744
X15.3083Y-9.924
X15.3087Y-8.5921
X15.3362Y-7.2929
X15.3827Y-9.5496
X15.387Y-7.7661
X15.4083Y-5.4799
X15.428Y-5.1059
X15.437Y-9.0713
X15.439Y-8.763
X15.461Y-6.0339
X15.4807Y-7.6827
X15.5051Y-9.9
X15.5484Y-8.7724
X15.5587Y-9.0213
X15.561Y-7.8429
X15.6476Y-8.776
X15.6516Y-7.8638
X15.7823Y-8.9669
X15.8535Y-8.8386
X15.861Y-6.7406
X15.8831Y-8.9713
X15.9642Y-7.8165
X15.9823Y-8.974
X16.0039Y-6.3303
X16.011Y-6.237
X16.0283Y-5.4492
X16.0311Y-9.2197
X16.1319Y-6.4677
X16.1823Y-10.2004
X16.2031Y-7.735
X16.2035Y-7.6358
X16.2201Y-9.9457
X16.3157Y-9.3965
X16.3181Y-9.9236
X16.3248Y-10.05
X16.3461Y-5.5795
X16.4075Y-10.2795
X16.4283Y-9.9543
X16.4598Y-8.9917
X16.5134Y-7.6929
X16.5209Y-9.9835
X16.6098Y-7.6886
X16.6551Y-6.3736
X16.676Y-8.3315
X16.6811Y-9.7213
X16.687Y-10.022
X16.6878Y-8.6445
X16.6902Y-7.3146
X16.7094Y-10.2748
X16.7118Y-5.2102
X16.7386Y-7.0673
X16.7579Y-6.6941
X16.761Y-8.1969
X16.7728Y-4.2555
X16.774Y-3.9724
X16.8449Y-10.0709
X16.8567Y-10.3295
X16.8823Y-3.8189
X16.9228Y-10.1264
X16.9614Y-8.8213
X16.9614Y-10.3398
X16.9673Y-6.6402
X17.0098Y-10.0776
X17.063Y-8.8193
X17.0823Y-10.4043
X17.0862Y-8.6713
X17.1047Y-6.6886
X17.1055Y-6.5866
X17.1177Y-10.1256
X17.1547Y-8.4949
X17.1547Y-9.0417
X17.1575Y-8.7925
X17.1854Y-3.8209
X17.2362Y-10.1291
X17.2654Y-10.0205
X17.2728Y-4.248
X17.2846Y-3.9685
X17.285Y-8.0878
X17.3031Y-5.0386
X17.4039Y-5.6031
X17.4075Y-6.4689
X17.4091Y-9.272
X17.4319Y-10.0898
X17.4571Y-6.6311
X17.4898Y-10.0035
X17.5031Y-10.4283
X17.5409Y-5.3425
X17.5646Y-6.6406
X17.6587Y-6.5283
X17.6598Y-6.6339
X17.7039Y-5.3031
X17.7138Y-5.4071
X17.7843Y-8.9744
X18.0925Y-8.8969
X18.1173Y-6.7197
X18.1201Y-9.8461
X18.1311Y-5.8776
X18.1346Y-6.2811
X18.1433Y-5.9866
X18.1862Y-8.9421
X18.1898Y-9.0484
X18.2118Y-9.1441
X18.2201Y-9.622
X18.2217Y-9.4634
X18.2406Y-6.6409
X18.2575Y-9.2453
X18.3071Y-9.3484
X18.3386Y-5.3047
X18.3421Y-9.6197
X18.3937Y-4.7264
X18.3972Y-5.8874
X18.4803Y-4.928
X18.4874Y-9.9969
X18.5902Y-5.0291
X18.611Y-9.6469
X18.685Y-4.9248
X18.8394Y-4.5744
X18.9323Y-9.6555
X19.0433Y-5.678
X19.1571Y-5.9925
X19.1587Y-6.3669
X19.1591Y-6.1717
X19.1606Y-6.5709
X19.1622Y-7.022
X19.1626Y-6.7957
X19.2634Y-8.9465
X19.3378Y-9.0492
X19.4102Y-9.3488
X19.411Y-9.1445
X19.5941Y-9.8469
T2
X4.1748Y-10.0476
X4.2303Y-5.7311
X4.2307Y-5.5311
X4.2307Y-5.6311
X4.2307Y-5.8315
X4.2307Y-5.9315
X4.2307Y-6.1311
X4.2307Y-6.2311
X4.2311Y-6.0315
X4.2311Y-6.3311
X4.2331Y-7.0878
X4.2333Y-6.8874
X4.2333Y-6.9878
X4.2333Y-8.7484
X4.2339Y-8.6484
X4.2339Y-8.8488
X4.2339Y-8.9488
X4.2339Y-9.0492
X4.2358Y-7.4909
X4.3331Y-9.2028
X4.3331Y-9.3028
X4.3331Y-9.4028
X4.3331Y-9.5028
X4.3331Y-9.6028
X4.3331Y-9.7028
X4.3331Y-9.8028
X4.3358Y-8.1957
X4.3358Y-8.2957
X4.3358Y-8.3957
X4.3358Y-8.4957
X4.3575Y-6.5101
X4.3594Y-6.7102
X4.3835Y-7.2909
X4.5835Y-7.2909
X4.6075Y-6.5101
X4.6094Y-6.7102
X4.6331Y-9.2028
X4.6331Y-9.3028
X4.6331Y-9.4028
X4.6331Y-9.5028
X4.6331Y-9.6028
X4.6331Y-9.7028
X4.6331Y-9.8028
X4.6358Y-8.1957
X4.6358Y-8.2957
X4.6358Y-8.3957
X4.6358Y-8.4957
X4.6748Y-10.0476
X4.7303Y-5.7311
X4.7307Y-5.5311
X4.7307Y-5.6311
X4.7307Y-5.8315
X4.7307Y-5.9315
X4.7307Y-6.1311
X4.7307Y-6.2311
X4.7311Y-6.0315
X4.7311Y-6.3311
X4.7331Y-7.0878
X4.7333Y-6.8874
X4.7333Y-6.9878
X4.7333Y-8.7484
X4.7339Y-8.6484
X4.7339Y-8.8488
X4.7339Y-8.9488
X4.7339Y-9.0492
X4.7358Y-7.4909
X4.7555Y-4.1738
X4.7555Y-4.6738
X4.7598Y-4.8026
X4.7598Y-5.3026
X4.839Y-8.2213
X4.839Y-8.4713
X4.9054Y-4.5463
X4.9054Y-4.9314
X4.9224Y-10.0507
X4.9252Y-9.2504
X4.9252Y-9.5004
X4.9441Y-8.7488
X4.9441Y-8.9988
X4.9886Y-8.0427
X4.9886Y-8.5427
X5.0287Y-5.0756
X5.0289Y-4.976
X5.0289Y-5.1756
X5.0291Y-4.8764
X5.0291Y-5.2756
X5.0358Y-6.5587
X5.036Y-6.6591
X5.1224Y-10.0507
X5.137Y-5.7319
X5.137Y-5.8319
X5.137Y-5.9319
X5.137Y-6.0319
X5.137Y-6.1319
X5.137Y-6.2319
X5.137Y-6.3319
X5.137Y-6.889
X5.137Y-6.989
X5.137Y-7.089
X5.137Y-7.189
X5.137Y-7.289
X5.137Y-7.389
X5.137Y-7.489
X5.1386Y-9.2041
X5.1386Y-9.3041
X5.1386Y-9.4041
X5.1386Y-9.5041
X5.1386Y-9.6041
X5.1386Y-9.7041
X5.1386Y-9.8041
X5.1398Y-8.0449
X5.1398Y-8.1449
X5.1398Y-8.2449
X5.1398Y-8.3449
X5.1398Y-8.4449
X5.1398Y-8.5449
X5.1398Y-8.6449
X5.1646Y-7.7675
X5.1792Y-4.6261
X5.2362Y-5.4823
X5.2847Y-4.7261
X5.3346Y-5.4823
X5.382Y-4.6261
X5.4146Y-7.7675
X5.437Y-5.7319
X5.437Y-5.8319
X5.437Y-5.9319
X5.437Y-6.0319
X5.437Y-6.1319
X5.437Y-6.2319
X5.437Y-6.3319
X5.437Y-6.889
X5.437Y-6.989
X5.437Y-7.089
X5.437Y-7.189
X5.437Y-7.289
X5.437Y-7.389
X5.437Y-7.489
X5.4386Y-9.2041
X5.4386Y-9.3041
X5.4386Y-9.4041
X5.4386Y-9.5041
X5.4386Y-9.6041
X5.4386Y-9.7041
X5.4386Y-9.8041
X5.4398Y-8.0449
X5.4398Y-8.1449
X5.4398Y-8.2449
X5.4398Y-8.3449
X5.4398Y-8.4449
X5.4398Y-8.5449
X5.4398Y-8.6449
X5.5287Y-5.0756
X5.5289Y-4.976
X5.5289Y-5.1756
X5.5291Y-4.8764
X5.5291Y-5.2756
X5.5358Y-6.5587
X5.536Y-6.6591
X5.5583Y-4.6252
X5.6125Y-7.0638
X5.6125Y-7.3138
X5.6126Y-5.7815
X5.6126Y-6.2815
X5.6126Y-9.2514
X5.6126Y-9.7514
X5.6567Y-4.6252
X5.6846Y-5.078
X5.6846Y-5.178
X5.6848Y-4.8776
X5.6848Y-4.978
X5.6898Y-6.5602
X5.787Y-5.7303
X5.787Y-5.8303
X5.787Y-5.9303
X5.787Y-6.0303
X5.787Y-6.1303
X5.787Y-6.2303
X5.787Y-6.3303
X5.7874Y-6.888
X5.7874Y-6.988
X5.7874Y-7.088
X5.7874Y-7.188
X5.7874Y-7.288
X5.7874Y-7.388
X5.7874Y-7.488
X5.7878Y-7.9945
X5.7878Y-8.0945
X5.7878Y-8.1945
X5.7878Y-8.2945
X5.7878Y-8.3945
X5.7878Y-8.4945
X5.7878Y-8.5945
X5.7878Y-8.6945
X5.7878Y-9.2018
X5.7878Y-9.3018
X5.7878Y-9.4018
X5.7878Y-9.5018
X5.7878Y-9.6018
X5.7878Y-9.7018
X5.7878Y-9.8018
X5.8157Y-7.7654
X5.8269Y-4.6257
X5.9324Y-4.7257
X6.0296Y-4.6257
X6.0657Y-7.7654
X6.087Y-5.7303
X6.087Y-5.8303
X6.087Y-5.9303
X6.087Y-6.0303
X6.087Y-6.1303
X6.087Y-6.2303
X6.087Y-6.3303
X6.0874Y-6.888
X6.0874Y-6.988
X6.0874Y-7.088
X6.0874Y-7.188
X6.0874Y-7.288
X6.0874Y-7.388
X6.0874Y-7.488
X6.0878Y-7.9945
X6.0878Y-8.0945
X6.0878Y-8.1945
X6.0878Y-8.2945
X6.0878Y-8.3945
X6.0878Y-8.4945
X6.0878Y-8.5945
X6.0878Y-8.6945
X6.0878Y-9.2018
X6.0878Y-9.3018
X6.0878Y-9.4018
X6.0878Y-9.5018
X6.0878Y-9.6018
X6.0878Y-9.7018
X6.0878Y-9.8018
X6.1846Y-5.078
X6.1846Y-5.178
X6.1848Y-4.8776
X6.1848Y-4.978
X6.1898Y-6.5602
X6.2661Y-5.9075
X6.2661Y-6.1575
X6.3374Y-5.4029
X6.3392Y-5.178
X6.3394Y-5.2776
X6.4402Y-5.7327
X6.4402Y-5.8327
X6.4402Y-5.9327
X6.4402Y-6.0327
X6.4402Y-6.1327
X6.4402Y-6.2327
X6.4402Y-6.3327
X6.4402Y-7.9927
X6.4402Y-8.0927
X6.4402Y-8.1927
X6.4402Y-8.2927
X6.4402Y-8.3927
X6.4402Y-8.4927
X6.4402Y-8.5927
X6.4402Y-8.6927
X6.4406Y-6.8843
X6.4406Y-6.9843
X6.4406Y-7.0843
X6.4406Y-7.1843
X6.4406Y-7.2843
X6.4406Y-7.3843
X6.4406Y-7.4843
X6.4437Y-9.1512
X6.4437Y-9.2512
X6.4437Y-9.3512
X6.4437Y-9.4512
X6.4437Y-9.5512
X6.4437Y-9.6512
X6.4437Y-9.7512
X6.4437Y-9.8512
X6.4587Y-4.6269
X6.5398Y-4.9248
X6.5874Y-5.4029
X6.6382Y-4.9248
X6.7087Y-4.6269
X6.7402Y-5.7327
X6.7402Y-5.8327
X6.7402Y-5.9327
X6.7402Y-6.0327
X6.7402Y-6.1327
X6.7402Y-6.2327
X6.7402Y-6.3327
X6.7402Y-7.9927
X6.7402Y-8.0927
X6.7402Y-8.1927
X6.7402Y-8.2927
X6.7402Y-8.3927
X6.7402Y-8.4927
X6.7402Y-8.5927
X6.7402Y-8.6927
X6.7406Y-6.8843
X6.7406Y-6.9843
X6.7406Y-7.0843
X6.7406Y-7.1843
X6.7406Y-7.2843
X6.7406Y-7.3843
X6.7406Y-7.4843
X6.7437Y-9.1512
X6.7437Y-9.2512
X6.7437Y-9.3512
X6.7437Y-9.4512
X6.7437Y-9.5512
X6.7437Y-9.6512
X6.7437Y-9.7512
X6.7437Y-9.8512
X6.8392Y-5.178
X6.8394Y-5.2776
X6.9185Y-5.9035
X6.9185Y-6.1535
X6.9192Y-9.3756
X6.9192Y-9.6256
X6.9255Y-7.0646
X6.9255Y-7.3146
X7.0882Y-5.7325
X7.0882Y-5.8325
X7.0882Y-5.9325
X7.0882Y-6.0325
X7.0882Y-6.1325
X7.0882Y-6.2325
X7.0882Y-6.3325
X7.0913Y-7.9961
X7.0913Y-8.0961
X7.0913Y-8.1961
X7.0913Y-8.2961
X7.0913Y-8.3961
X7.0913Y-8.4961
X7.0913Y-8.5961
X7.0913Y-8.6961
X7.0917Y-6.837
X7.0917Y-6.937
X7.0917Y-7.037
X7.0917Y-7.137
X7.0917Y-7.237
X7.0917Y-7.337
X7.0917Y-7.437
X7.0917Y-7.537
X7.0941Y-9.1555
X7.0941Y-9.2555
X7.0941Y-9.3555
X7.0941Y-9.4555
X7.0941Y-9.5555
X7.0941Y-9.6555
X7.0941Y-9.7555
X7.0941Y-9.8555
X7.3882Y-5.7325
X7.3882Y-5.8325
X7.3882Y-5.9325
X7.3882Y-6.0325
X7.3882Y-6.1325
X7.3882Y-6.2325
X7.3882Y-6.3325
X7.3913Y-7.9961
X7.3913Y-8.0961
X7.3913Y-8.1961
X7.3913Y-8.2961
X7.3913Y-8.3961
X7.3913Y-8.4961
X7.3913Y-8.5961
X7.3913Y-8.6961
X7.3917Y-6.837
X7.3917Y-6.937
X7.3917Y-7.037
X7.3917Y-7.137
X7.3917Y-7.237
X7.3917Y-7.337
X7.3917Y-7.437
X7.3917Y-7.537
X7.3941Y-9.1555
X7.3941Y-9.2555
X7.3941Y-9.3555
X7.3941Y-9.4555
X7.3941Y-9.5555
X7.3941Y-9.6555
X7.3941Y-9.7555
X7.3941Y-9.8555
X7.5657Y-5.7827
X7.5657Y-6.2827
X7.7398Y-5.6831
X7.7398Y-5.7831
X7.7398Y-5.8831
X7.7398Y-5.9831
X7.7398Y-6.0831
X7.7398Y-6.1831
X7.7398Y-6.2831
X7.7398Y-6.3831
X7.7406Y-7.9937
X7.7406Y-8.0937
X7.7406Y-8.1937
X7.7406Y-8.2937
X7.7406Y-8.3937
X7.7406Y-8.4937
X7.7406Y-8.5937
X7.7406Y-8.6937
X7.7413Y-6.8343
X7.7413Y-6.9343
X7.7413Y-7.0343
X7.7413Y-7.1343
X7.7413Y-7.2343
X7.7413Y-7.3343
X7.7413Y-7.4343
X7.7413Y-7.5343
X7.7425Y-9.1555
X7.7425Y-9.2555
X7.7425Y-9.3555
X7.7425Y-9.4555
X7.7425Y-9.5555
X7.7425Y-9.6555
X7.7425Y-9.7555
X7.7425Y-9.8555
X8.0398Y-5.6831
X8.0398Y-5.7831
X8.0398Y-5.8831
X8.0398Y-5.9831
X8.0398Y-6.0831
X8.0398Y-6.1831
X8.0398Y-6.2831
X8.0398Y-6.3831
X8.0406Y-7.9937
X8.0406Y-8.0937
X8.0406Y-8.1937
X8.0406Y-8.2937
X8.0406Y-8.3937
X8.0406Y-8.4937
X8.0406Y-8.5937
X8.0406Y-8.6937
X8.0413Y-6.8343
X8.0413Y-6.9343
X8.0413Y-7.0343
X8.0413Y-7.1343
X8.0413Y-7.2343
X8.0413Y-7.3343
X8.0413Y-7.4343
X8.0413Y-7.5343
X8.0425Y-9.1555
X8.0425Y-9.2555
X8.0425Y-9.3555
X8.0425Y-9.4555
X8.0425Y-9.5555
X8.0425Y-9.6555
X8.0425Y-9.7555
X8.0425Y-9.8555
X8.2241Y-8.1933
X8.2241Y-8.4689
X8.3846Y-4.3772
X8.3949Y-5.7329
X8.3949Y-5.8329
X8.3949Y-5.9329
X8.3949Y-6.0329
X8.3949Y-6.1329
X8.3949Y-6.2329
X8.3949Y-6.3329
X8.3961Y-6.7854
X8.3961Y-6.8854
X8.3961Y-6.9854
X8.3961Y-7.0854
X8.3961Y-7.1854
X8.3961Y-7.2854
X8.3961Y-7.3854
X8.3961Y-7.4854
X8.3961Y-7.5854
X8.3972Y-7.9957
X8.3972Y-8.0957
X8.3972Y-8.1957
X8.3972Y-8.2957
X8.3972Y-8.3957
X8.3972Y-8.4957
X8.3972Y-8.5957
X8.3972Y-8.6957
X8.3984Y-9.152
X8.3984Y-9.252
X8.3984Y-9.352
X8.3984Y-9.452
X8.3984Y-9.552
X8.3984Y-9.652
X8.3984Y-9.752
X8.3984Y-9.852
X8.6949Y-5.7329
X8.6949Y-5.8329
X8.6949Y-5.9329
X8.6949Y-6.0329
X8.6949Y-6.1329
X8.6949Y-6.2329
X8.6949Y-6.3329
X8.6961Y-6.7854
X8.6961Y-6.8854
X8.6961Y-6.9854
X8.6961Y-7.0854
X8.6961Y-7.1854
X8.6961Y-7.2854
X8.6961Y-7.3854
X8.6961Y-7.4854
X8.6961Y-7.5854
X8.6972Y-7.9957
X8.6972Y-8.0957
X8.6972Y-8.1957
X8.6972Y-8.2957
X8.6972Y-8.3957
X8.6972Y-8.4957
X8.6972Y-8.5957
X8.6972Y-8.6957
X8.6984Y-9.152
X8.6984Y-9.252
X8.6984Y-9.352
X8.6984Y-9.452
X8.6984Y-9.552
X8.6984Y-9.652
X8.6984Y-9.752
X8.6984Y-9.852
X8.8705Y-5.9079
X8.8705Y-6.1579
X8.8722Y-8.1921
X8.8722Y-8.4677
X8.8846Y-4.3772
X9.0449Y-5.6831
X9.0449Y-5.7831
X9.0449Y-5.8831
X9.0449Y-5.9831
X9.0449Y-6.0831
X9.0449Y-6.1831
X9.0449Y-6.2831
X9.0449Y-6.3831
X9.0461Y-6.8315
X9.0461Y-6.9315
X9.0461Y-7.0315
X9.0461Y-7.1315
X9.0461Y-7.2315
X9.0461Y-7.3315
X9.0461Y-7.4315
X9.0469Y-7.9925
X9.0469Y-8.0925
X9.0469Y-8.1925
X9.0469Y-8.2925
X9.0469Y-8.3925
X9.0469Y-8.4925
X9.0469Y-8.5925
X9.0469Y-8.6925
X9.0476Y-9.1524
X9.0476Y-9.2524
X9.0476Y-9.3524
X9.0476Y-9.4524
X9.0476Y-9.5524
X9.0476Y-9.6524
X9.0476Y-9.7524
X9.0476Y-9.8524
X9.3449Y-5.6831
X9.3449Y-5.7831
X9.3449Y-5.8831
X9.3449Y-5.9831
X9.3449Y-6.0831
X9.3449Y-6.1831
X9.3449Y-6.2831
X9.3449Y-6.3831
X9.3461Y-6.8315
X9.3461Y-6.9315
X9.3461Y-7.0315
X9.3461Y-7.1315
X9.3461Y-7.2315
X9.3461Y-7.3315
X9.3461Y-7.4315
X9.3469Y-7.9925
X9.3469Y-8.0925
X9.3469Y-8.1925
X9.3469Y-8.2925
X9.3469Y-8.3925
X9.3469Y-8.4925
X9.3469Y-8.5925
X9.3469Y-8.6925
X9.3476Y-9.1524
X9.3476Y-9.2524
X9.3476Y-9.3524
X9.3476Y-9.4524
X9.3476Y-9.5524
X9.3476Y-9.6524
X9.3476Y-9.7524
X9.3476Y-9.8524
X9.5197Y-7.0626
X9.5197Y-7.3126
X9.5213Y-9.3776
X9.5213Y-9.6276
X9.5228Y-8.089
X9.5228Y-8.589
X9.6941Y-5.6799
X9.6941Y-5.7799
X9.6941Y-5.8799
X9.6941Y-5.9799
X9.6941Y-6.0799
X9.6941Y-6.1799
X9.6941Y-6.2799
X9.6941Y-6.3799
X9.6984Y-6.8339
X9.6984Y-6.9339
X9.6984Y-7.0339
X9.6984Y-7.1339
X9.6984Y-7.2339
X9.6984Y-7.3339
X9.6984Y-7.4339
X9.6984Y-7.5339
X9.7Y-7.9933
X9.7Y-8.0933
X9.7Y-8.1933
X9.7Y-8.2933
X9.7Y-8.3933
X9.7Y-8.4933
X9.7Y-8.5933
X9.7Y-8.6933
X9.7016Y-9.1508
X9.7016Y-9.2508
X9.7016Y-9.3508
X9.7016Y-9.4508
X9.7016Y-9.5508
X9.7016Y-9.6508
X9.7016Y-9.7508
X9.7016Y-9.8508
X9.7896Y-3.998
X9.7896Y-4.126
X9.7898Y-3.8657
X9.9409Y-3.6738
X9.9941Y-5.6799
X9.9941Y-5.7799
X9.9941Y-5.8799
X9.9941Y-5.9799
X9.9941Y-6.0799
X9.9941Y-6.1799
X9.9941Y-6.2799
X9.9941Y-6.3799
X9.9984Y-6.8339
X9.9984Y-6.9339
X9.9984Y-7.0339
X9.9984Y-7.1339
X9.9984Y-7.2339
X9.9984Y-7.3339
X9.9984Y-7.4339
X9.9984Y-7.5339
X10.0Y-7.9933
X10.0Y-8.0933
X10.0Y-8.1933
X10.0Y-8.2933
X10.0Y-8.3933
X10.0Y-8.4933
X10.0Y-8.5933
X10.0Y-8.6933
X10.0016Y-9.1508
X10.0016Y-9.2508
X10.0016Y-9.3508
X10.0016Y-9.4508
X10.0016Y-9.5508
X10.0016Y-9.6508
X10.0016Y-9.7508
X10.0016Y-9.8508
X10.0409Y-3.6738
X10.1409Y-3.6738
X10.172Y-5.7811
X10.172Y-6.2811
X10.2896Y-3.998
X10.2896Y-4.126
X10.2898Y-3.8657
X10.3472Y-6.887
X10.3472Y-6.987
X10.3472Y-7.087
X10.3472Y-7.187
X10.3472Y-7.287
X10.3472Y-7.387
X10.3472Y-7.487
X10.3488Y-9.2004
X10.3488Y-9.3004
X10.3488Y-9.4004
X10.3488Y-9.5004
X10.3488Y-9.6004
X10.3488Y-9.7004
X10.3488Y-9.8004
X10.3508Y-5.7311
X10.3508Y-5.8311
X10.3508Y-5.9311
X10.3508Y-6.0311
X10.3508Y-6.1311
X10.3508Y-6.2311
X10.3508Y-6.3311
X10.3516Y-8.0406
X10.3516Y-8.1406
X10.3516Y-8.2406
X10.3516Y-8.3406
X10.3516Y-8.4406
X10.3516Y-8.5406
X10.3516Y-8.6406
X10.3776Y-7.7663
X10.6276Y-7.7663
X10.6472Y-6.887
X10.6472Y-6.987
X10.6472Y-7.087
X10.6472Y-7.187
X10.6472Y-7.287
X10.6472Y-7.387
X10.6472Y-7.487
X10.6488Y-9.2004
X10.6488Y-9.3004
X10.6488Y-9.4004
X10.6488Y-9.5004
X10.6488Y-9.6004
X10.6488Y-9.7004
X10.6488Y-9.8004
X10.6508Y-5.7311
X10.6508Y-5.8311
X10.6508Y-5.9311
X10.6508Y-6.0311
X10.6508Y-6.1311
X10.6508Y-6.2311
X10.6508Y-6.3311
X10.6516Y-8.0406
X10.6516Y-8.1406
X10.6516Y-8.2406
X10.6516Y-8.3406
X10.6516Y-8.4406
X10.6516Y-8.5406
X10.6516Y-8.6406
X10.8228Y-9.3744
X10.8228Y-9.6244
X10.9546Y-6.5285
X10.9988Y-5.6811
X10.9988Y-5.7811
X10.9988Y-5.8811
X10.9988Y-5.9811
X10.9988Y-6.0811
X10.9988Y-6.1811
X10.9988Y-6.2811
X10.9988Y-6.3811
X11.0012Y-9.2004
X11.0012Y-9.3004
X11.0012Y-9.4004
X11.0012Y-9.5004
X11.0012Y-9.6004
X11.0012Y-9.7004
X11.0012Y-9.8004
X11.0197Y-5.5265
X11.1553Y-7.2344
X11.1553Y-7.3344
X11.1553Y-7.4344
X11.1553Y-7.5344
X11.1553Y-7.6344
X11.1553Y-7.7344
X11.1553Y-7.8344
X11.1553Y-7.9344
X11.1553Y-8.0344
X11.1553Y-8.1344
X11.1553Y-8.2344
X11.1553Y-8.3344
X11.2697Y-5.5265
X11.2988Y-5.6811
X11.2988Y-5.7811
X11.2988Y-5.8811
X11.2988Y-5.9811
X11.2988Y-6.0811
X11.2988Y-6.1811
X11.2988Y-6.2811
X11.2988Y-6.3811
X11.3012Y-9.2004
X11.3012Y-9.3004
X11.3012Y-9.4004
X11.3012Y-9.5004
X11.3012Y-9.6004
X11.3012Y-9.7004
X11.3012Y-9.8004
X11.3396Y-6.5285
X11.6508Y-5.677
X11.6508Y-5.777
X11.6508Y-5.877
X11.6508Y-5.977
X11.6508Y-6.077
X11.6508Y-6.177
X11.6508Y-6.277
X11.6508Y-6.377
X11.6567Y-9.1478
X11.6567Y-9.2478
X11.6567Y-9.3478
X11.6567Y-9.4478
X11.6567Y-9.5478
X11.6567Y-9.6478
X11.6567Y-9.7478
X11.6567Y-9.8478
X11.6772Y-6.5274
X11.6807Y-8.9181
X11.7553Y-7.2344
X11.7553Y-7.3344
X11.7553Y-7.4344
X11.7553Y-7.5344
X11.7553Y-7.6344
X11.7553Y-7.7344
X11.7553Y-7.8344
X11.7553Y-7.9344
X11.7553Y-8.0344
X11.7553Y-8.1344
X11.7553Y-8.2344
X11.7553Y-8.3344
X11.9272Y-6.5274
X11.9307Y-8.9181
X11.9508Y-5.677
X11.9508Y-5.777
X11.9508Y-5.877
X11.9508Y-5.977
X11.9508Y-6.077
X11.9508Y-6.177
X11.9508Y-6.277
X11.9508Y-6.377
X11.9567Y-9.1478
X11.9567Y-9.2478
X11.9567Y-9.3478
X11.9567Y-9.4478
X11.9567Y-9.5478
X11.9567Y-9.6478
X11.9567Y-9.7478
X11.9567Y-9.8478
X12.2652Y-6.5281
X12.3012Y-5.6783
X12.3012Y-5.7783
X12.3012Y-5.8783
X12.3012Y-5.9783
X12.3012Y-6.0783
X12.3012Y-6.1783
X12.3012Y-6.2783
X12.3012Y-6.3783
X12.3035Y-9.148
X12.3035Y-9.248
X12.3035Y-9.348
X12.3035Y-9.448
X12.3035Y-9.548
X12.3035Y-9.648
X12.3035Y-9.748
X12.3035Y-9.848
X12.3063Y-7.2343
X12.3063Y-7.3343
X12.3063Y-7.4343
X12.3063Y-7.5343
X12.3063Y-7.6343
X12.3063Y-7.7343
X12.3063Y-7.8343
X12.3063Y-7.9343
X12.3063Y-8.0343
X12.3063Y-8.1343
X12.3063Y-8.2343
X12.3063Y-8.3343
X12.3232Y-5.5228
X12.5547Y-10.3051
X12.5732Y-5.5228
X12.6012Y-5.6783
X12.6012Y-5.7783
X12.6012Y-5.8783
X12.6012Y-5.9783
X12.6012Y-6.0783
X12.6012Y-6.1783
X12.6012Y-6.2783
X12.6012Y-6.3783
X12.6035Y-9.148
X12.6035Y-9.248
X12.6035Y-9.348
X12.6035Y-9.448
X12.6035Y-9.548
X12.6035Y-9.648
X12.6035Y-9.748
X12.6035Y-9.848
X12.6503Y-6.5281
X12.7799Y-9.2496
X12.7799Y-9.7496
X12.8555Y-10.0031
X12.9063Y-7.2343
X12.9063Y-7.3343
X12.9063Y-7.4343
X12.9063Y-7.5343
X12.9063Y-7.6343
X12.9063Y-7.7343
X12.9063Y-7.8343
X12.9063Y-7.9343
X12.9063Y-8.0343
X12.9063Y-8.1343
X12.9063Y-8.2343
X12.9063Y-8.3343
X12.9524Y-5.6791
X12.9524Y-5.7791
X12.9524Y-5.8791
X12.9524Y-5.9791
X12.9524Y-6.0791
X12.9524Y-6.1791
X12.9524Y-6.2791
X12.9524Y-6.3791
X12.9598Y-9.199
X12.9598Y-9.299
X12.9598Y-9.399
X12.9598Y-9.499
X12.9598Y-9.599
X12.9598Y-9.699
X12.9598Y-9.799
X12.9795Y-6.5266
X13.0276Y-7.1634
X13.0547Y-10.3051
X13.2047Y-10.3063
X13.2295Y-6.5266
X13.2524Y-5.6791
X13.2524Y-5.7791
X13.2524Y-5.8791
X13.2524Y-5.9791
X13.2524Y-6.0791
X13.2524Y-6.1791
X13.2524Y-6.2791
X13.2524Y-6.3791
X13.2598Y-9.199
X13.2598Y-9.299
X13.2598Y-9.399
X13.2598Y-9.499
X13.2598Y-9.599
X13.2598Y-9.699
X13.2598Y-9.799
X13.3031Y-7.1634
X13.3555Y-10.0031
X13.4238Y-4.7
X13.4238Y-4.95
X13.4331Y-9.3744
X13.4331Y-9.6244
X13.4378Y-8.2209
X13.4378Y-8.4709
X13.4949Y-3.9244
X13.4949Y-4.0236
X13.4951Y-3.8244
X13.4955Y-3.7244
X13.5028Y-10.0047
X13.5059Y-8.9173
X13.5669Y-6.5307
X13.5988Y-4.5213
X13.5988Y-4.6213
X13.5988Y-4.7213
X13.5988Y-4.8213
X13.5988Y-4.9213
X13.5988Y-5.0213
X13.5988Y-5.1213
X13.6028Y-5.6787
X13.6028Y-5.7787
X13.6028Y-5.8787
X13.6028Y-5.9787
X13.6028Y-6.0787
X13.6028Y-6.1787
X13.6028Y-6.2787
X13.6028Y-6.3787
X13.6043Y-7.9898
X13.6043Y-8.0898
X13.6043Y-8.1898
X13.6043Y-8.2898
X13.6043Y-8.3898
X13.6043Y-8.4898
X13.6043Y-8.5898
X13.6043Y-8.6898
X13.6051Y-9.1972
X13.6051Y-9.2972
X13.6051Y-9.3972
X13.6051Y-9.4972
X13.6051Y-9.5972
X13.6051Y-9.6972
X13.6051Y-9.7972
X13.6063Y-6.8335
X13.6063Y-6.9335
X13.6063Y-7.0335
X13.6063Y-7.1335
X13.6063Y-7.2335
X13.6063Y-7.3335
X13.6063Y-7.4335
X13.6063Y-7.5335
X13.6244Y-5.5238
X13.6252Y-5.2752
X13.6972Y-4.2724
X13.7047Y-10.3063
X13.7957Y-4.2724
X13.8744Y-5.5238
X13.8752Y-5.2752
X13.8988Y-4.5213
X13.8988Y-4.6213
X13.8988Y-4.7213
X13.8988Y-4.8213
X13.8988Y-4.9213
X13.8988Y-5.0213
X13.8988Y-5.1213
X13.9028Y-5.6787
X13.9028Y-5.7787
X13.9028Y-5.8787
X13.9028Y-5.9787
X13.9028Y-6.0787
X13.9028Y-6.1787
X13.9028Y-6.2787
X13.9028Y-6.3787
X13.9043Y-7.9898
X13.9043Y-8.0898
X13.9043Y-8.1898
X13.9043Y-8.2898
X13.9043Y-8.3898
X13.9043Y-8.4898
X13.9043Y-8.5898
X13.9043Y-8.6898
X13.9051Y-9.1972
X13.9051Y-9.2972
X13.9051Y-9.3972
X13.9051Y-9.4972
X13.9051Y-9.5972
X13.9051Y-9.6972
X13.9051Y-9.7972
X13.9063Y-6.8335
X13.9063Y-6.9335
X13.9063Y-7.0335
X13.9063Y-7.1335
X13.9063Y-7.2335
X13.9063Y-7.3335
X13.9063Y-7.4335
X13.9063Y-7.5335
X13.952Y-6.5307
X13.9702Y-4.2706
X13.9949Y-3.9244
X13.9949Y-4.0236
X13.9951Y-3.8244
X13.9955Y-3.7244
X14.0028Y-10.0047
X14.0059Y-8.9173
X14.0736Y-4.5752
X14.0736Y-5.0752
X14.0757Y-4.3706
X14.0791Y-9.1476
X14.0791Y-9.6476
X14.1455Y-3.9201
X14.1455Y-4.0201
X14.1459Y-3.8205
X14.1461Y-3.7205
X14.1729Y-4.2706
X14.2492Y-4.524
X14.2492Y-4.624
X14.2492Y-4.724
X14.2492Y-4.824
X14.2492Y-4.924
X14.2492Y-5.024
X14.2492Y-5.124
X14.2551Y-8.0388
X14.2551Y-8.1388
X14.2551Y-8.2388
X14.2551Y-8.3388
X14.2551Y-8.4388
X14.2551Y-8.5388
X14.2551Y-8.6388
X14.2555Y-5.678
X14.2555Y-5.778
X14.2555Y-5.878
X14.2555Y-5.978
X14.2555Y-6.078
X14.2555Y-6.178
X14.2555Y-6.278
X14.2555Y-6.378
X14.2555Y-6.8839
X14.2555Y-6.9839
X14.2555Y-7.0839
X14.2555Y-7.1839
X14.2555Y-7.2839
X14.2555Y-7.3839
X14.2555Y-7.4839
X14.2567Y-9.2
X14.2567Y-9.3
X14.2567Y-9.4
X14.2567Y-9.5
X14.2567Y-9.6
X14.2567Y-9.7
X14.2567Y-9.8
X14.2567Y-9.9
X14.2748Y-5.2753
X14.2791Y-6.5306
X14.3449Y-4.274
X14.4433Y-4.274
X14.5248Y-5.2753
X14.5291Y-6.5306
X14.5492Y-4.524
X14.5492Y-4.624
X14.5492Y-4.724
X14.5492Y-4.824
X14.5492Y-4.924
X14.5492Y-5.024
X14.5492Y-5.124
X14.5551Y-8.0388
X14.5551Y-8.1388
X14.5551Y-8.2388
X14.5551Y-8.3388
X14.5551Y-8.4388
X14.5551Y-8.5388
X14.5551Y-8.6388
X14.5555Y-5.678
X14.5555Y-5.778
X14.5555Y-5.878
X14.5555Y-5.978
X14.5555Y-6.078
X14.5555Y-6.178
X14.5555Y-6.278
X14.5555Y-6.378
X14.5555Y-6.8839
X14.5555Y-6.9839
X14.5555Y-7.0839
X14.5555Y-7.1839
X14.5555Y-7.2839
X14.5555Y-7.3839
X14.5555Y-7.4839
X14.5567Y-9.2
X14.5567Y-9.3
X14.5567Y-9.4
X14.5567Y-9.5
X14.5567Y-9.6
X14.5567Y-9.7
X14.5567Y-9.8
X14.5567Y-9.9
X14.6455Y-3.9201
X14.6455Y-4.0201
X14.6459Y-3.8205
X14.6461Y-3.7205
X14.7043Y-9.8028
X14.7043Y-10.3028
X14.7278Y-4.6988
X14.7278Y-4.9488
X14.7366Y-9.374
X14.7366Y-9.624
X14.8067Y-8.9161
X14.8633Y-6.532
X14.9059Y-5.6776
X14.9059Y-5.7776
X14.9059Y-5.8776
X14.9059Y-5.9776
X14.9059Y-6.0776
X14.9059Y-6.1776
X14.9059Y-6.2776
X14.9059Y-6.3776
X14.9079Y-8.0402
X14.9079Y-8.1402
X14.9079Y-8.2402
X14.9079Y-8.3402
X14.9079Y-8.4402
X14.9079Y-8.5402
X14.9079Y-8.6402
X14.9091Y-6.8841
X14.9091Y-6.9841
X14.9091Y-7.0841
X14.9091Y-7.1841
X14.9091Y-7.2841
X14.9091Y-7.3841
X14.9091Y-7.4841
X14.9098Y-9.1492
X14.9098Y-9.2492
X14.9098Y-9.3492
X14.9098Y-9.4492
X14.9098Y-9.5492
X14.9098Y-9.6492
X14.9098Y-9.7492
X14.9098Y-9.8492
X14.9303Y-5.5249
X15.0063Y-7.7594
X15.1047Y-7.7594
X15.1266Y-4.8752
X15.1268Y-4.9744
X15.1803Y-5.5249
X15.2059Y-5.6776
X15.2059Y-5.7776
X15.2059Y-5.8776
X15.2059Y-5.9776
X15.2059Y-6.0776
X15.2059Y-6.1776
X15.2059Y-6.2776
X15.2059Y-6.3776
X15.2079Y-8.0402
X15.2079Y-8.1402
X15.2079Y-8.2402
X15.2079Y-8.3402
X15.2079Y-8.4402
X15.2079Y-8.5402
X15.2079Y-8.6402
X15.2091Y-6.8841
X15.2091Y-6.9841
X15.2091Y-7.0841
X15.2091Y-7.1841
X15.2091Y-7.2841
X15.2091Y-7.3841
X15.2091Y-7.4841
X15.2098Y-9.1492
X15.2098Y-9.2492
X15.2098Y-9.3492
X15.2098Y-9.4492
X15.2098Y-9.5492
X15.2098Y-9.6492
X15.2098Y-9.7492
X15.2098Y-9.8492
X15.2483Y-6.532
X15.3067Y-8.9161
X15.3799Y-9.2413
X15.3799Y-9.7413
X15.3815Y-6.9358
X15.3815Y-7.4358
X15.5551Y-5.6772
X15.5551Y-5.7772
X15.5551Y-5.8772
X15.5551Y-5.9772
X15.5551Y-6.0772
X15.5551Y-6.1772
X15.5551Y-6.2772
X15.5551Y-6.3772
X15.5563Y-6.8331
X15.5563Y-6.9331
X15.5563Y-7.0331
X15.5563Y-7.1331
X15.5563Y-7.2331
X15.5563Y-7.3331
X15.5563Y-7.4331
X15.5563Y-7.5331
X15.5571Y-8.039
X15.5571Y-8.139
X15.5571Y-8.239
X15.5571Y-8.339
X15.5571Y-8.439
X15.5571Y-8.539
X15.5571Y-8.639
X15.5583Y-9.1957
X15.5583Y-9.2957
X15.5583Y-9.3957
X15.5583Y-9.4957
X15.5583Y-9.5957
X15.5583Y-9.6957
X15.5583Y-9.7957
X15.6266Y-4.8752
X15.6268Y-4.9744
X15.8551Y-5.6772
X15.8551Y-5.7772
X15.8551Y-5.8772
X15.8551Y-5.9772
X15.8551Y-6.0772
X15.8551Y-6.1772
X15.8551Y-6.2772
X15.8551Y-6.3772
X15.8563Y-6.8331
X15.8563Y-6.9331
X15.8563Y-7.0331
X15.8563Y-7.1331
X15.8563Y-7.2331
X15.8563Y-7.3331
X15.8563Y-7.4331
X15.8563Y-7.5331
X15.8571Y-8.039
X15.8571Y-8.139
X15.8571Y-8.239
X15.8571Y-8.339
X15.8571Y-8.439
X15.8571Y-8.539
X15.8571Y-8.639
X15.8583Y-9.1957
X15.8583Y-9.2957
X15.8583Y-9.3957
X15.8583Y-9.4957
X15.8583Y-9.5957
X15.8583Y-9.6957
X15.8583Y-9.7957
X16.0341Y-9.3736
X16.0341Y-9.6236
X16.2067Y-5.6793
X16.2067Y-5.7793
X16.2067Y-5.8793
X16.2067Y-5.9793
X16.2067Y-6.0793
X16.2067Y-6.1793
X16.2067Y-6.2793
X16.2067Y-6.3793
X16.2094Y-9.1965
X16.2094Y-9.2965
X16.2094Y-9.3965
X16.2094Y-9.4965
X16.2094Y-9.5965
X16.2094Y-9.6965
X16.2094Y-9.7965
X16.2098Y-6.835
X16.2098Y-6.935
X16.2098Y-7.035
X16.2098Y-7.135
X16.2098Y-7.235
X16.2098Y-7.335
X16.2098Y-7.435
X16.2098Y-7.535
X16.2106Y-7.9925
X16.2106Y-8.0925
X16.2106Y-8.1925
X16.2106Y-8.2925
X16.2106Y-8.3925
X16.2106Y-8.4925
X16.2106Y-8.5925
X16.2106Y-8.6925
X16.5067Y-5.6793
X16.5067Y-5.7793
X16.5067Y-5.8793
X16.5067Y-5.9793
X16.5067Y-6.0793
X16.5067Y-6.1793
X16.5067Y-6.2793
X16.5067Y-6.3793
X16.5094Y-9.1965
X16.5094Y-9.2965
X16.5094Y-9.3965
X16.5094Y-9.4965
X16.5094Y-9.5965
X16.5094Y-9.6965
X16.5094Y-9.7965
X16.5098Y-6.835
X16.5098Y-6.935
X16.5098Y-7.035
X16.5098Y-7.135
X16.5098Y-7.235
X16.5098Y-7.335
X16.5098Y-7.435
X16.5098Y-7.535
X16.5106Y-7.9925
X16.5106Y-8.0925
X16.5106Y-8.1925
X16.5106Y-8.2925
X16.5106Y-8.3925
X16.5106Y-8.4925
X16.5106Y-8.5925
X16.5106Y-8.6925
X16.8531Y-4.4236
X16.8531Y-4.5236
X16.8531Y-4.6236
X16.8531Y-4.7236
X16.8531Y-4.8236
X16.8531Y-4.9236
X16.8531Y-5.0236
X16.8531Y-5.1236
X16.8579Y-6.9366
X16.8579Y-7.4366
X16.8587Y-8.09
X16.8587Y-8.59
X16.8591Y-5.6791
X16.8591Y-5.7791
X16.8591Y-5.8791
X16.8591Y-5.9791
X16.8591Y-6.0791
X16.8591Y-6.1791
X16.8591Y-6.2791
X16.8591Y-6.3791
X16.8594Y-9.1465
X16.8594Y-9.2465
X16.8594Y-9.3465
X16.8594Y-9.4465
X16.8594Y-9.5465
X16.8594Y-9.6465
X16.8594Y-9.7465
X16.8594Y-9.8465
X17.0098Y-8.2165
X17.0098Y-8.4665
X17.0154Y-7.0665
X17.0154Y-7.3165
X17.1531Y-4.4236
X17.1531Y-4.5236
X17.1531Y-4.6236
X17.1531Y-4.7236
X17.1531Y-4.8236
X17.1531Y-4.9236
X17.1531Y-5.0236
X17.1531Y-5.1236
X17.1591Y-5.6791
X17.1591Y-5.7791
X17.1591Y-5.8791
X17.1591Y-5.9791
X17.1591Y-6.0791
X17.1591Y-6.1791
X17.1591Y-6.2791
X17.1591Y-6.3791
X17.1594Y-9.1465
X17.1594Y-9.2465
X17.1594Y-9.3465
X17.1594Y-9.4465
X17.1594Y-9.5465
X17.1594Y-9.6465
X17.1594Y-9.7465
X17.1594Y-9.8465
X17.1598Y-8.0896
X17.1598Y-8.5896
X17.4091Y-5.9051
X17.4091Y-6.1551
X17.4097Y-9.374
X17.4097Y-9.624
X17.513Y-6.8098
X17.513Y-6.9098
X17.513Y-7.0098
X17.513Y-7.1098
X17.513Y-7.2098
X17.513Y-7.3098
X17.513Y-7.4098
X17.513Y-7.5098
X17.513Y-7.6098
X17.513Y-7.7098
X17.513Y-7.8098
X17.513Y-7.9098
X17.513Y-8.0098
X17.513Y-8.1098
X17.513Y-8.2098
X17.513Y-8.3098
X17.513Y-8.4098
X17.513Y-8.5098
X17.513Y-8.6098
X17.513Y-8.7098
X17.6606Y-5.7256
X17.6606Y-5.8256
X17.6606Y-5.9256
X17.6606Y-6.0256
X17.6606Y-6.1256
X17.6606Y-6.2256
X17.6606Y-6.3256
X17.6626Y-9.1484
X17.6626Y-9.2484
X17.6626Y-9.3484
X17.6626Y-9.4484
X17.6626Y-9.5484
X17.6626Y-9.6484
X17.6626Y-9.7484
X17.6626Y-9.8484
X17.9606Y-5.7256
X17.9606Y-5.8256
X17.9606Y-5.9256
X17.9606Y-6.0256
X17.9606Y-6.1256
X17.9606Y-6.2256
X17.9606Y-6.3256
X17.9626Y-9.1484
X17.9626Y-9.2484
X17.9626Y-9.3484
X17.9626Y-9.4484
X17.9626Y-9.5484
X17.9626Y-9.6484
X17.9626Y-9.7484
X17.9626Y-9.8484
X18.113Y-6.8098
X18.113Y-6.9098
X18.113Y-7.0098
X18.113Y-7.1098
X18.113Y-7.2098
X18.113Y-7.3098
X18.113Y-7.4098
X18.113Y-7.5098
X18.113Y-7.6098
X18.113Y-7.7098
X18.113Y-7.8098
X18.113Y-7.9098
X18.113Y-8.0098
X18.113Y-8.1098
X18.113Y-8.2098
X18.113Y-8.3098
X18.113Y-8.4098
X18.113Y-8.5098
X18.113Y-8.6098
X18.113Y-8.7098
X19.0051Y-5.124
X19.2087Y-5.3795
X19.3071Y-5.3795
X19.5051Y-5.124
T3
X4.25Y-4.8766
X4.25Y-5.3766
X4.3764Y-4.1756
X4.3764Y-5.3839
X4.4764Y-4.1756
X4.4764Y-5.3839
X4.5764Y-4.1756
X4.5764Y-5.3839
X5.8339Y-5.4303
X6.0339Y-5.4303
X6.8583Y-8.1181
X6.9124Y-7.9252
X7.4291Y-6.5285
X17.7091Y-10.4043
X17.8091Y-10.4043
X17.9091Y-10.4043
X18.0091Y-10.4043
X18.1091Y-10.4043
X18.2091Y-10.4043
X18.3091Y-10.4043
X18.4091Y-10.4043
X18.5091Y-10.4043
X18.6091Y-10.4043
X18.7091Y-10.4043
X18.8091Y-10.4043
X18.9091Y-10.4043
X19.0091Y-10.4043
X19.1091Y-10.4043
X19.2091Y-10.4043
X19.3091Y-10.4043
X19.4091Y-10.4043
X19.5091Y-10.4043
X19.6091Y-10.4043
T4
X7.6949Y-4.9748
X10.4114Y-4.9701
X15.2764Y-4.6728
X15.3819Y-4.7728
X15.4791Y-4.6728
T5
X4.0874Y-3.7901
X4.1858Y-3.8885
X4.3827Y-3.7901
X4.5795Y-3.8885
X4.678Y-3.7901
X5.1921Y-3.7901
X5.2906Y-3.8885
X5.4874Y-3.7901
X5.6843Y-3.8885
X5.7827Y-3.7901
X6.3067Y-3.7901
X6.3602Y-4.2232
X6.4051Y-3.8885
X6.5091Y-4.2232
X6.602Y-3.7901
X6.6579Y-4.2232
X6.7988Y-3.8885
X6.8067Y-4.2232
X6.8972Y-3.7901
X7.2059Y-4.7657
X7.2059Y-4.9157
X7.2063Y-4.1657
X7.2063Y-4.3157
X7.2063Y-4.4657
X7.2063Y-4.6157
X7.4465Y-4.7657
X7.4465Y-4.9157
X7.4469Y-4.1657
X7.4469Y-4.3157
X7.4469Y-4.4657
X7.4469Y-4.6157
X19.1411Y-4.4045
X19.1411Y-4.5545
X19.1411Y-4.7045
X19.3817Y-4.4045
X19.3817Y-4.5545
X19.3817Y-4.7045
T6
X7.6598Y-3.8744
X9.589Y-3.8744
T7
X4.0222Y-4.4252
X4.0222Y-4.6252
X4.025Y-4.928
X4.025Y-5.128
X4.1222Y-4.5252
X4.125Y-5.028
X5.0348Y-4.226
X6.1844Y-4.226
X6.2809Y-4.4533
X6.8872Y-4.4533
X9.5929Y-4.3244
X10.4984Y-4.3244
X11.9047Y-4.298
X12.3346Y-4.298
X13.6472Y-3.5201
X13.7472Y-3.6201
X13.8472Y-3.5201
X14.2957Y-3.5193
X14.3957Y-3.6193
X14.4957Y-3.5193
X16.3528Y-3.9701
X16.3528Y-5.1807
T8
X4.1827Y-3.3971
X4.2827Y-3.3971
X4.3827Y-3.3971
X4.4827Y-3.3971
X4.5827Y-3.3971
X5.2874Y-3.3971
X5.3874Y-3.3971
X5.4874Y-3.3971
X5.5874Y-3.3971
X5.6874Y-3.3971
X6.402Y-3.3971
X6.502Y-3.3971
X6.602Y-3.3971
X6.702Y-3.3971
X6.802Y-3.3971
T9
X12.1201Y-3.7744
X12.1201Y-4.9634
X15.3819Y-4.1091
T0
M30
