%TF.GenerationSoftware,KiCad,Pcbnew,7.0.7*%
%TF.CreationDate,2023-09-25T12:36:18+01:00*%
%TF.ProjectId,TRS80IUS,54525338-3049-4555-932e-6b696361645f,rev?*%
%TF.SameCoordinates,Original*%
%TF.FileFunction,Profile,NP*%
%FSLAX46Y46*%
G04 Gerber Fmt 4.6, Leading zero omitted, Abs format (unit mm)*
G04 Created by KiCad (PCBNEW 7.0.7) date 2023-09-25 12:36:18*
%MOMM*%
%LPD*%
G01*
G04 APERTURE LIST*
%TA.AperFunction,Profile*%
%ADD10C,0.100000*%
%TD*%
G04 APERTURE END LIST*
D10*
X126200000Y-83600000D02*
X152720000Y-83600000D01*
X492520000Y-198260000D02*
G75*
G03*
X492520000Y-198260000I-4470000J0D01*
G01*
X152720000Y-91990000D02*
X154270000Y-91990000D01*
X274630000Y-259350000D02*
G75*
G03*
X274630000Y-259350000I-4440000J0D01*
G01*
X501780000Y-96870000D02*
G75*
G03*
X501780000Y-96870000I-1010000J0D01*
G01*
X476760000Y-83590000D02*
X476760000Y-93480000D01*
X104390000Y-264610000D02*
G75*
G03*
X104390000Y-264610000I-1670000J0D01*
G01*
X422290000Y-94620000D02*
X423390000Y-93520000D01*
X435700000Y-195240000D02*
G75*
G03*
X435700000Y-195240000I-4480000J0D01*
G01*
X99580000Y-265760000D02*
G75*
G03*
X99580000Y-265760000I-880000J0D01*
G01*
X96010000Y-268430000D02*
X96010000Y-83600000D01*
X115490000Y-198370000D02*
G75*
G03*
X115490000Y-198370000I-4520000J0D01*
G01*
X154270000Y-91990000D02*
X154270000Y-83600000D01*
X244820000Y-195500000D02*
G75*
G03*
X244820000Y-195500000I-4390000J0D01*
G01*
X423390000Y-83590000D02*
X476760000Y-83590000D01*
X503040000Y-94600000D02*
X503040000Y-268430000D01*
X154270000Y-83600000D02*
X405450000Y-83600000D01*
X96010000Y-83600000D02*
X124660000Y-83600000D01*
X477880000Y-94600000D02*
X503040000Y-94600000D01*
X503040000Y-268430000D02*
X96010000Y-268430000D01*
X405450000Y-83600000D02*
X405450000Y-93630000D01*
X406440000Y-94620000D02*
X422290000Y-94620000D01*
X152720000Y-83600000D02*
X152720000Y-91990000D01*
X232280000Y-114890000D02*
G75*
G03*
X232280000Y-114890000I-1580000J0D01*
G01*
X126200000Y-92170000D02*
X124660000Y-92170000D01*
X405450000Y-93630000D02*
X406440000Y-94620000D01*
X423390000Y-93520000D02*
X423390000Y-83590000D01*
X232290000Y-137720000D02*
G75*
G03*
X232290000Y-137720000I-1580000J0D01*
G01*
X476760000Y-93480000D02*
X477880000Y-94600000D01*
X404370000Y-137380000D02*
G75*
G03*
X404370000Y-137380000I-4610000J0D01*
G01*
X392740000Y-104370000D02*
G75*
G03*
X392740000Y-104370000I-2140000J0D01*
G01*
X498720000Y-101090000D02*
G75*
G03*
X498720000Y-101090000I-1790000J0D01*
G01*
X340460000Y-195230000D02*
G75*
G03*
X340460000Y-195230000I-4610000J0D01*
G01*
X404170000Y-259200000D02*
G75*
G03*
X404170000Y-259200000I-4490000J0D01*
G01*
X126200000Y-83600000D02*
X126200000Y-92170000D01*
X124660000Y-92170000D02*
X124660000Y-83600000D01*
X274780000Y-137440000D02*
G75*
G03*
X274780000Y-137440000I-4610000J0D01*
G01*
M02*
